<svg width="80" height="80" viewBox="0 0 80 80" fill="none" xmlns="http://www.w3.org/2000/svg">
<rect width="80" height="80" fill="#C9A251"/>
<path d="M47.5078 51.8918V27.2764H57.3636C59.1745 27.2764 60.6849 27.5448 61.8948 28.0817C63.1048 28.6185 64.0142 29.3637 64.6232 30.3172C65.2322 31.2627 65.5367 32.3525 65.5367 33.5865C65.5367 34.548 65.3444 35.3934 64.9597 36.1225C64.5751 36.8437 64.0463 37.4366 63.3732 37.9014C62.7081 38.3581 61.9469 38.6826 61.0895 38.8749V39.1153C62.027 39.1554 62.9044 39.4198 63.7218 39.9086C64.5471 40.3974 65.2161 41.0825 65.729 41.9639C66.2418 42.8373 66.4982 43.8789 66.4982 45.0889C66.4982 46.395 66.1737 47.5608 65.5246 48.5865C64.8836 49.6041 63.9341 50.4094 62.6761 51.0023C61.4181 51.5953 59.8676 51.8918 58.0246 51.8918H47.5078ZM52.7121 47.6369H56.9549C58.4052 47.6369 59.4629 47.3605 60.128 46.8076C60.7931 46.2467 61.1256 45.5015 61.1256 44.572C61.1256 43.891 60.9613 43.29 60.6328 42.7692C60.3043 42.2483 59.8355 41.8397 59.2266 41.5432C58.6256 41.2467 57.9085 41.0985 57.0751 41.0985H52.7121V47.6369ZM52.7121 37.5768H56.5703C57.2835 37.5768 57.9165 37.4526 58.4693 37.2043C59.0302 36.9478 59.471 36.5873 59.7915 36.1225C60.12 35.6578 60.2843 35.1009 60.2843 34.4518C60.2843 33.5624 59.9677 32.8453 59.3347 32.3004C58.7097 31.7555 57.8203 31.4831 56.6665 31.4831H52.7121V37.5768Z" fill="#283758"/>
<path d="M32.171 52.2284C30.6646 52.2284 29.3905 51.9359 28.3489 51.351C27.3152 50.758 26.57 49.9527 26.1133 48.9351C25.6646 47.9175 25.5484 46.7676 25.7647 45.4856C25.917 44.5561 26.2455 43.7188 26.7503 42.9736C27.2551 42.2204 27.9242 41.5032 28.7575 40.8221C29.5989 40.141 30.5885 39.4399 31.7263 38.7188L35.7287 36.0625C36.6902 35.4615 37.4394 34.8646 37.9763 34.2716C38.5212 33.6787 38.8617 32.9535 38.9979 32.0962C39.1261 31.2708 38.9418 30.5337 38.445 29.8846C37.9563 29.2276 37.2191 28.899 36.2335 28.899C35.5524 28.899 34.9034 29.0713 34.2864 29.4159C33.6774 29.7604 33.1646 30.2091 32.7479 30.762C32.3313 31.3069 32.0708 31.8798 31.9667 32.4808C31.8785 33.0417 31.9346 33.6026 32.1349 34.1635C32.3353 34.7244 32.6317 35.3173 33.0244 35.9423C33.417 36.5593 33.8497 37.2444 34.3224 37.9976L43.2527 51.8918H40.6566L32.8441 39.8606C32.187 38.8429 31.6061 37.9375 31.1013 37.1442C30.5965 36.351 30.2199 35.5857 29.9715 34.8486C29.7311 34.1034 29.679 33.3061 29.8152 32.4567C29.9915 31.4071 30.3881 30.4736 31.0051 29.6562C31.6301 28.8309 32.4114 28.1819 33.3489 27.7091C34.2944 27.2364 35.324 27 36.4378 27C37.5756 27 38.5252 27.2324 39.2864 27.6971C40.0476 28.1619 40.5925 28.7788 40.921 29.5481C41.2575 30.3173 41.3457 31.1667 41.1854 32.0962C41.0011 33.2099 40.5484 34.1995 39.8272 35.0649C39.1141 35.9223 38.1446 36.7596 36.9186 37.5769L31.9186 40.9183C30.5324 41.8397 29.5428 42.6931 28.9498 43.4784C28.3649 44.2636 28.0284 44.9327 27.9402 45.4856C27.804 46.351 27.8922 47.1522 28.2047 47.8894C28.5252 48.6186 29.042 49.2075 29.7551 49.6562C30.4683 50.097 31.3457 50.3133 32.3873 50.3053C33.405 50.2973 34.4026 50.0929 35.3801 49.6923C36.3657 49.2837 37.2792 48.7027 38.1205 47.9495C38.9699 47.1963 39.699 46.2949 40.308 45.2452C40.925 44.1955 41.3777 43.0256 41.6662 41.7356L43.7455 41.7596C43.4891 43.0817 43.1285 44.1955 42.6638 45.101C42.199 46.0064 41.7143 46.7556 41.2095 47.3486C40.7127 47.9415 40.28 48.4303 39.9114 48.8149C39.7992 48.9351 39.679 49.0593 39.5508 49.1875C39.4226 49.3077 39.2984 49.4239 39.1782 49.5361C38.2247 50.4095 37.1149 51.0785 35.8489 51.5433C34.5829 52 33.3569 52.2284 32.171 52.2284Z" fill="#283758"/>
<path d="M22.2043 27.2764V51.8918H17V27.2764H22.2043Z" fill="#283758"/>
</svg>
