<svg width="4467" height="393" viewBox="0 0 4467 393" fill="none" xmlns="http://www.w3.org/2000/svg">
<g clip-path="url(#clip0_1703_7623)">
<rect x="7" y="7" width="379" height="379" rx="189.5" fill="white"/>
<rect x="142.609" y="270.72" width="115.998" height="130.281" rx="12.6333" fill="white" stroke="#00010F" stroke-width="12.6333" stroke-miterlimit="10" stroke-linecap="round" stroke-linejoin="round"/>
<path d="M297.443 168.261C298.044 160.922 304.475 155.528 311.807 156.213V156.213C320.175 156.996 325.829 165.239 323.53 173.304L312.513 211.935C311.221 216.468 306.755 219.292 302.09 218.528V218.528C297.221 217.73 293.756 213.3 294.158 208.387L297.443 168.261Z" fill="white" stroke="#00010F" stroke-width="12.6333" stroke-miterlimit="10" stroke-linecap="round" stroke-linejoin="round"/>
<path d="M71.056 173.306C68.7562 165.241 74.4105 156.998 82.7788 156.215V156.215C90.1107 155.53 96.5415 160.924 97.1423 168.263L100.427 208.389C100.829 213.302 97.3643 217.732 92.4955 218.53V218.53C87.8302 219.294 83.365 216.469 82.0725 211.937L71.056 173.306Z" fill="white" stroke="#00010F" stroke-width="12.6333" stroke-miterlimit="10" stroke-linecap="round" stroke-linejoin="round"/>
<path d="M97.3463 159.759C95.6214 143.168 97.9904 127.175 103.599 112.729C112.071 90.9091 127.932 72.6165 148.241 61.1161C162.893 52.8192 179.86 48.0576 198.036 48.0576C216.212 48.0576 233.179 52.8192 247.831 61.1161C269.273 73.258 285.758 92.9711 293.821 116.413C298.452 129.874 300.306 144.566 298.726 159.759L289.344 250.001C284.481 296.773 245.06 332.308 198.036 332.308C151.012 332.308 117.908 296.773 113.046 250.001L97.3463 159.759Z" fill="white" stroke="#00010F" stroke-width="12.6333" stroke-miterlimit="10" stroke-linecap="round" stroke-linejoin="round"/>
<path d="M202.814 161.758L224.502 210.296C228.236 218.652 222.121 228.083 212.968 228.083H202.814" stroke="#00010F" stroke-width="12.6333" stroke-miterlimit="10" stroke-linecap="round" stroke-linejoin="round"/>
<path d="M85.959 148.334L107.982 164.499L187.936 155.773C194.769 155.027 201.663 155.027 208.496 155.773L287.016 164.343L310.201 150.703" stroke="black" stroke-width="12.6333" stroke-miterlimit="10" stroke-linecap="round" stroke-linejoin="round"/>
<path d="M200.446 289.057C225.302 289.057 245.452 271.93 245.452 250.802H155.439C155.439 271.93 175.589 289.057 200.446 289.057Z" stroke="#00010F" stroke-width="12.6333" stroke-miterlimit="10" stroke-linecap="round" stroke-linejoin="round"/>
<path d="M113.377 145.784L174.874 141.56C178.567 141.306 181.693 144.267 181.64 147.968L181.301 171.286C181.036 189.581 166.809 204.595 148.552 205.849C130.294 207.103 114.079 194.18 111.224 176.099L107.585 153.054C107.007 149.397 109.684 146.038 113.377 145.784Z" fill="#5B5C77" stroke="black" stroke-width="12.6333" stroke-miterlimit="10" stroke-linecap="round" stroke-linejoin="round"/>
<path d="M220.747 141.56L282.244 145.784C285.937 146.038 288.614 149.398 288.036 153.055L284.397 176.1C281.542 194.18 265.327 207.104 247.069 205.85C228.812 204.595 214.586 189.581 214.32 171.286L213.982 147.968C213.928 144.268 217.054 141.307 220.747 141.56Z" fill="#5B5C77" stroke="black" stroke-width="12.6333" stroke-miterlimit="10" stroke-linecap="round" stroke-linejoin="round"/>
<path d="M202.814 228.083H212.968C222.121 228.083 228.236 218.652 224.502 210.296L217.632 194.92L206.368 168.075" stroke="#00010F" stroke-width="12.6333" stroke-miterlimit="10" stroke-linecap="round" stroke-linejoin="round"/>
<rect width="41.1208" height="107.989" rx="6.31667" transform="matrix(0.617558 0.786525 -0.744503 0.667619 280.158 325.266)" fill="black" stroke="black" stroke-width="8.44429" stroke-miterlimit="10" stroke-linecap="round" stroke-linejoin="round"/>
<rect width="41.1208" height="107.989" rx="6.31667" transform="matrix(0.617558 -0.786525 0.744504 0.667619 100.025 364.714)" fill="black" stroke="black" stroke-width="8.44429" stroke-miterlimit="10" stroke-linecap="round" stroke-linejoin="round"/>
</g>
<rect x="7" y="7" width="379" height="379" rx="189.5" stroke="black" stroke-width="12.6333" stroke-miterlimit="10" stroke-linecap="round" stroke-linejoin="round"/>
<g clip-path="url(#clip1_1703_7623)">
<rect x="686" y="7" width="379" height="379" rx="189.5" fill="white"/>
<rect x="821.609" y="270.72" width="115.998" height="130.281" rx="12.6333" fill="white" stroke="#00010F" stroke-width="12.6333" stroke-miterlimit="10" stroke-linecap="round" stroke-linejoin="round"/>
<path d="M976.436 168.261C977.036 160.922 983.467 155.528 990.799 156.213V156.213C999.167 156.996 1004.82 165.239 1002.52 173.304L991.505 211.935C990.213 216.468 985.748 219.292 981.082 218.528V218.528C976.214 217.73 972.748 213.3 973.151 208.387L976.436 168.261Z" fill="white" stroke="#00010F" stroke-width="12.6333" stroke-miterlimit="10" stroke-linecap="round" stroke-linejoin="round"/>
<path d="M750.056 173.306C747.756 165.241 753.41 156.998 761.779 156.215V156.215C769.111 155.53 775.541 160.924 776.142 168.263L779.427 208.389C779.829 213.302 776.364 217.732 771.495 218.53V218.53C766.83 219.294 762.365 216.469 761.072 211.937L750.056 173.306Z" fill="white" stroke="#00010F" stroke-width="12.6333" stroke-miterlimit="10" stroke-linecap="round" stroke-linejoin="round"/>
<path d="M776.34 159.759C774.615 143.168 776.985 127.175 782.593 112.729C791.065 90.9091 806.927 72.6165 827.236 61.1161C841.888 52.8192 858.854 48.0576 877.03 48.0576C895.206 48.0576 912.173 52.8192 926.825 61.1161C948.267 73.258 964.752 92.9711 972.816 116.413C977.446 129.874 979.3 144.566 977.72 159.759L968.338 250.001C963.475 296.773 924.054 332.308 877.03 332.308C830.006 332.308 796.903 296.773 792.04 250.001L776.34 159.759Z" fill="white" stroke="#00010F" stroke-width="12.6333" stroke-miterlimit="10" stroke-linecap="round" stroke-linejoin="round"/>
<path d="M881.814 161.758L903.502 210.296C907.236 218.652 901.121 228.083 891.968 228.083H881.814" stroke="#00010F" stroke-width="12.6333" stroke-miterlimit="10" stroke-linecap="round" stroke-linejoin="round"/>
<path d="M764.959 148.334L786.982 164.499L866.936 155.773C873.769 155.027 880.663 155.027 887.496 155.773L966.016 164.343L989.201 150.703" stroke="#5B5C77" stroke-width="12.6333" stroke-miterlimit="10" stroke-linecap="round" stroke-linejoin="round"/>
<path d="M879.446 289.057C904.302 289.057 924.452 271.93 924.452 250.802H834.439C834.439 271.93 854.589 289.057 879.446 289.057Z" stroke="#00010F" stroke-width="12.6333" stroke-miterlimit="10" stroke-linecap="round" stroke-linejoin="round"/>
<path d="M819.386 143.929L826.864 143.415C845.085 142.163 860.512 156.774 860.247 175.033C860.012 191.208 847.433 204.483 831.291 205.592L823.813 206.106C807.67 207.215 793.333 195.788 790.809 179.802C787.959 161.758 801.165 145.18 819.386 143.929Z" fill="white" stroke="#5B5C77" stroke-width="12.6333" stroke-miterlimit="10" stroke-linecap="round" stroke-linejoin="round"/>
<path d="M926.757 143.415L934.235 143.929C952.456 145.181 965.662 161.758 962.813 179.802C960.288 195.789 945.951 207.215 929.808 206.106L922.331 205.593C906.188 204.484 893.609 191.209 893.374 175.033C893.109 156.775 908.536 142.164 926.757 143.415Z" fill="white" stroke="#5B5C77" stroke-width="12.6333" stroke-miterlimit="10" stroke-linecap="round" stroke-linejoin="round"/>
<path d="M881.814 228.083H891.968C901.121 228.083 907.236 218.652 903.502 210.296L896.632 194.92L885.368 168.075" stroke="#00010F" stroke-width="12.6333" stroke-miterlimit="10" stroke-linecap="round" stroke-linejoin="round"/>
<path d="M794.578 346.902C794.578 341.733 800.694 338.094 805.231 340.33C818.683 346.96 843.929 356.777 875.497 356.777C907.516 356.777 933.03 346.679 946.332 340.049C950.864 337.789 956.417 340.706 956.417 345.62L956.417 406.489C956.417 410.124 953.324 413.203 949.674 413.203H800.496C797.167 413.203 794.578 410.625 794.578 407.311L794.578 346.902Z" fill="black" stroke="black" stroke-width="8.44429" stroke-miterlimit="10" stroke-linecap="round" stroke-linejoin="round"/>
<circle cx="825.336" cy="173.797" r="9.96891" fill="black"/>
<circle cx="928.279" cy="173.797" r="9.96891" fill="black"/>
</g>
<rect x="686" y="7" width="379" height="379" rx="189.5" stroke="black" stroke-width="12.6333" stroke-miterlimit="10" stroke-linecap="round" stroke-linejoin="round"/>
<g clip-path="url(#clip2_1703_7623)">
<rect x="1365" y="7" width="379" height="379" rx="189.5" fill="white"/>
<rect x="1500.61" y="270.72" width="115.998" height="130.281" rx="12.6333" fill="white" stroke="#00010F" stroke-width="12.6333" stroke-miterlimit="10" stroke-linecap="round" stroke-linejoin="round"/>
<path d="M1655.44 168.261C1656.04 160.922 1662.47 155.528 1669.81 156.213V156.213C1678.18 156.996 1683.83 165.239 1681.53 173.304L1670.51 211.935C1669.22 216.468 1664.76 219.292 1660.09 218.528V218.528C1655.22 217.73 1651.76 213.3 1652.16 208.387L1655.44 168.261Z" fill="white" stroke="#00010F" stroke-width="12.6333" stroke-miterlimit="10" stroke-linecap="round" stroke-linejoin="round"/>
<path d="M1429.06 173.306C1426.76 165.241 1432.41 156.998 1440.78 156.215V156.215C1448.11 155.53 1454.54 160.924 1455.14 168.263L1458.43 208.389C1458.83 213.302 1455.37 217.732 1450.5 218.53V218.53C1445.83 219.294 1441.37 216.469 1440.07 211.937L1429.06 173.306Z" fill="white" stroke="#00010F" stroke-width="12.6333" stroke-miterlimit="10" stroke-linecap="round" stroke-linejoin="round"/>
<path d="M1455.34 159.759C1453.62 143.168 1455.98 127.175 1461.59 112.729C1470.06 90.9091 1485.93 72.6165 1506.24 61.1161C1520.89 52.8192 1537.85 48.0576 1556.03 48.0576C1574.21 48.0576 1591.17 52.8192 1605.83 61.1161C1627.27 73.258 1643.75 92.9711 1651.82 116.413C1656.45 129.874 1658.3 144.566 1656.72 159.759L1647.34 250.001C1642.47 296.773 1603.05 332.308 1556.03 332.308C1509.01 332.308 1475.9 296.773 1471.04 250.001L1455.34 159.759Z" fill="white" stroke="#00010F" stroke-width="12.6333" stroke-miterlimit="10" stroke-linecap="round" stroke-linejoin="round"/>
<path d="M1538.77 147.405C1523.47 131.652 1497.93 132.346 1483.5 148.906L1478.57 154.557" stroke="#5B5C77" stroke-width="12.6333" stroke-miterlimit="10" stroke-linecap="round" stroke-linejoin="round"/>
<path d="M1638.26 155.669C1627.75 136.385 1602.95 130.193 1584.61 142.269L1578.35 146.39" stroke="#5B5C77" stroke-width="12.6333" stroke-miterlimit="10" stroke-linecap="round" stroke-linejoin="round"/>
<path d="M1560.82 228.083H1570.97C1580.12 228.083 1586.24 218.652 1582.5 210.296L1575.63 194.92L1564.37 168.075" stroke="#00010F" stroke-width="12.6333" stroke-miterlimit="10" stroke-linecap="round" stroke-linejoin="round"/>
<path d="M1558.45 289.057C1583.3 289.057 1603.45 271.93 1603.45 250.802H1513.44C1513.44 271.93 1533.59 289.057 1558.45 289.057Z" stroke="#00010F" stroke-width="12.6333" stroke-miterlimit="10" stroke-linecap="round" stroke-linejoin="round"/>
<circle cx="1516.97" cy="173.797" r="9.96891" fill="black"/>
<circle cx="1600.96" cy="173.797" r="9.96891" fill="black"/>
<rect width="41.1208" height="107.989" rx="6.31667" transform="matrix(0.617558 0.786525 -0.744503 0.667619 1638.16 318.949)" fill="white" stroke="black" stroke-width="12.6333" stroke-miterlimit="10" stroke-linecap="round" stroke-linejoin="round"/>
<rect width="41.1208" height="107.989" rx="6.31667" transform="matrix(0.617558 -0.786525 0.744504 0.667619 1458.03 358.398)" fill="white" stroke="black" stroke-width="12.6333" stroke-miterlimit="10" stroke-linecap="round" stroke-linejoin="round"/>
</g>
<rect x="1365" y="7" width="379" height="379" rx="189.5" stroke="black" stroke-width="12.6333" stroke-miterlimit="10" stroke-linecap="round" stroke-linejoin="round"/>
<g clip-path="url(#clip3_1703_7623)">
<rect x="2044" y="7" width="379" height="379" rx="189.5" fill="white"/>
<path d="M2161.43 416.939L2178.48 303.353H2292.86L2309.91 416.939H2161.43Z" fill="#A2A3B6" stroke="black" stroke-width="12.6333"/>
<rect x="2193.72" y="231.118" width="84.5755" height="111.202" rx="42.2877" fill="#A2A3B6" stroke="#00010F" stroke-width="12.6333" stroke-miterlimit="10" stroke-linecap="round" stroke-linejoin="round"/>
<path d="M2336.51 154.372C2336.51 110.613 2288.4 75.1387 2244.64 75.1387H2225.06C2181.3 75.1387 2133.19 110.613 2133.19 154.372V221.13C2133.19 228.02 2138.77 233.605 2145.66 233.605C2151.5 233.605 2156.55 237.649 2157.84 243.34L2168.79 291.981C2175.03 319.679 2208.38 330.937 2230.13 312.685L2231.43 311.593C2233.11 310.186 2235.55 310.184 2237.23 311.588C2259.33 330.08 2293.17 318.121 2298.74 289.849L2307.49 245.42C2308.84 238.555 2314.86 233.605 2321.86 233.605C2329.95 233.605 2336.51 227.048 2336.51 218.959V154.372Z" fill="#A2A3B6" stroke="#00010F" stroke-width="12.6333" stroke-miterlimit="10" stroke-linecap="round" stroke-linejoin="round"/>
<circle cx="2197.22" cy="160.249" r="13.4158" fill="black" stroke="white" stroke-width="12.6333"/>
<circle cx="2266.82" cy="160.249" r="13.4158" fill="black" stroke="white" stroke-width="12.6333"/>
<path d="M2381.19 234.594L2339.06 283.604C2326.17 298.599 2300.31 285.991 2304.65 265.971C2308.25 249.323 2311.56 233.04 2313.97 219.237C2316.35 205.591 2317.95 193.906 2317.95 186.699C2317.95 175.567 2315.51 160.277 2312.32 144.925C2309.12 129.45 2305.05 113.455 2301.61 100.725C2298.93 90.8412 2305.39 80.8139 2315.3 79.2977C2320.7 78.4713 2326.16 80.3734 2329.88 84.3768L2367.96 125.386C2379.16 137.442 2386.47 152.582 2388.96 168.844L2392.81 194.011C2395.05 208.587 2390.8 223.411 2381.19 234.594Z" fill="#A2A3B6" stroke="black" stroke-width="12.6333"/>
<path d="M2085.81 234.594L2127.93 283.604C2140.82 298.599 2166.68 285.991 2162.35 265.971C2158.75 249.323 2155.44 233.04 2153.03 219.237C2150.64 205.591 2149.05 193.906 2149.05 186.699C2149.05 175.567 2151.49 160.277 2154.67 144.925C2157.88 129.45 2161.95 113.455 2165.39 100.725C2168.06 90.8412 2161.6 80.8139 2151.69 79.2977C2146.29 78.4713 2140.83 80.3734 2137.12 84.3768L2099.03 125.386C2087.84 137.442 2080.52 152.582 2078.03 168.844L2074.18 194.011C2071.95 208.587 2076.2 223.411 2085.81 234.594Z" fill="#A2A3B6" stroke="black" stroke-width="12.6333"/>
<path fill-rule="evenodd" clip-rule="evenodd" d="M2265.2 259.37C2265.2 251.783 2259.05 245.633 2251.46 245.633H2218.25C2210.67 245.633 2204.52 251.783 2204.52 259.37V268.195C2204.52 270.907 2206.71 273.106 2209.43 273.106V273.106C2212.14 273.106 2214.34 275.305 2214.34 278.017V285.281C2214.34 292.006 2219.79 297.457 2226.51 297.457H2243.21C2249.94 297.457 2255.39 292.006 2255.39 285.281V278.011C2255.39 275.302 2257.58 273.106 2260.29 273.106V273.106C2263 273.106 2265.2 270.91 2265.2 268.201V259.37Z" fill="white"/>
<path d="M2218.25 251.949H2251.46V239.316H2218.25V251.949ZM2210.83 268.195V259.37H2198.2V268.195H2210.83ZM2220.65 285.281V278.017H2208.02V285.281H2220.65ZM2243.21 291.14H2226.51V303.773H2243.21V291.14ZM2249.07 278.011V285.281H2261.7V278.011H2249.07ZM2258.88 259.37V268.201H2271.51V259.37H2258.88ZM2260.29 279.423C2266.49 279.423 2271.51 274.399 2271.51 268.201H2258.88C2258.88 267.422 2259.51 266.79 2260.29 266.79V279.423ZM2261.7 278.011C2261.7 278.791 2261.07 279.423 2260.29 279.423V266.79C2254.09 266.79 2249.07 271.814 2249.07 278.011H2261.7ZM2243.21 303.773C2253.42 303.773 2261.7 295.494 2261.7 285.281H2249.07C2249.07 288.517 2246.45 291.14 2243.21 291.14V303.773ZM2208.02 285.281C2208.02 295.494 2216.3 303.773 2226.51 303.773V291.14C2223.28 291.14 2220.65 288.517 2220.65 285.281H2208.02ZM2209.43 279.423C2208.65 279.423 2208.02 278.794 2208.02 278.017H2220.65C2220.65 271.816 2215.63 266.79 2209.43 266.79V279.423ZM2198.2 268.195C2198.2 274.396 2203.23 279.423 2209.43 279.423V266.79C2210.2 266.79 2210.83 267.419 2210.83 268.195H2198.2ZM2251.46 251.949C2255.56 251.949 2258.88 255.272 2258.88 259.37H2271.51C2271.51 248.294 2262.54 239.316 2251.46 239.316V251.949ZM2218.25 239.316C2207.18 239.316 2198.2 248.294 2198.2 259.37H2210.83C2210.83 255.272 2214.15 251.949 2218.25 251.949V239.316Z" fill="#00010F"/>
</g>
<rect x="2044" y="7" width="379" height="379" rx="189.5" stroke="black" stroke-width="12.6333" stroke-miterlimit="10" stroke-linecap="round" stroke-linejoin="round"/>
<g clip-path="url(#clip4_1703_7623)">
<rect x="2723" y="7" width="379" height="379" rx="189.5" fill="white"/>
<rect x="2858.61" y="270.72" width="115.998" height="130.281" rx="12.6333" fill="white" stroke="#00010F" stroke-width="12.6333" stroke-miterlimit="10" stroke-linecap="round" stroke-linejoin="round"/>
<path d="M3013.44 168.261C3014.04 160.922 3020.47 155.528 3027.81 156.213V156.213C3036.18 156.996 3041.83 165.239 3039.53 173.304L3028.51 211.935C3027.22 216.468 3022.76 219.292 3018.09 218.528V218.528C3013.22 217.73 3009.76 213.3 3010.16 208.387L3013.44 168.261Z" fill="white" stroke="#00010F" stroke-width="12.6333" stroke-miterlimit="10" stroke-linecap="round" stroke-linejoin="round"/>
<path d="M2787.06 173.306C2784.76 165.241 2790.41 156.998 2798.78 156.215V156.215C2806.11 155.53 2812.54 160.924 2813.14 168.263L2816.43 208.389C2816.83 213.302 2813.36 217.732 2808.5 218.53V218.53C2803.83 219.294 2799.37 216.469 2798.07 211.937L2787.06 173.306Z" fill="white" stroke="#00010F" stroke-width="12.6333" stroke-miterlimit="10" stroke-linecap="round" stroke-linejoin="round"/>
<path d="M2813.35 159.759C2811.62 143.168 2813.99 127.175 2819.6 112.729C2828.07 90.9091 2843.93 72.6165 2864.24 61.1161C2878.89 52.8192 2895.86 48.0576 2914.04 48.0576C2932.21 48.0576 2949.18 52.8192 2963.83 61.1161C2985.27 73.258 3001.76 92.9711 3009.82 116.413C3014.45 129.874 3016.31 144.566 3014.73 159.759L3005.34 250.001C3000.48 296.773 2961.06 332.308 2914.04 332.308C2867.01 332.308 2833.91 296.773 2829.05 250.001L2813.35 159.759Z" fill="white" stroke="#00010F" stroke-width="12.6333" stroke-miterlimit="10" stroke-linecap="round" stroke-linejoin="round"/>
<path d="M2918.81 161.758L2940.5 210.296C2944.24 218.652 2938.12 228.083 2928.97 228.083H2918.81" stroke="#00010F" stroke-width="12.6333" stroke-miterlimit="10" stroke-linecap="round" stroke-linejoin="round"/>
<path d="M2801.96 148.334L2812.1 155.777C2819.74 161.387 2829.21 163.929 2838.64 162.9L2910.1 155.1C2912.84 154.802 2915.59 154.802 2918.33 155.1L2990.52 162.979C2998.63 163.864 3006.82 162.107 3013.85 157.969L3026.2 150.703" stroke="black" stroke-width="12.6333" stroke-miterlimit="10" stroke-linecap="round" stroke-linejoin="round"/>
<path d="M2916.45 289.057C2941.3 289.057 2961.45 271.93 2961.45 250.802H2871.44C2871.44 271.93 2891.59 289.057 2916.45 289.057Z" stroke="#00010F" stroke-width="12.6333" stroke-miterlimit="10" stroke-linecap="round" stroke-linejoin="round"/>
<path d="M2856.39 143.929L2863.86 143.415C2882.09 142.163 2897.51 156.774 2897.25 175.033C2897.01 191.208 2884.43 204.483 2868.29 205.592L2860.81 206.106C2844.67 207.215 2830.33 195.788 2827.81 179.802C2824.96 161.758 2838.17 145.18 2856.39 143.929Z" fill="#5B5C77" stroke="black" stroke-width="12.6333" stroke-miterlimit="10" stroke-linecap="round" stroke-linejoin="round"/>
<path d="M2963.76 143.415L2971.23 143.929C2989.46 145.181 3002.66 161.758 2999.81 179.802C2997.29 195.789 2982.95 207.215 2966.81 206.106L2959.33 205.593C2943.19 204.484 2930.61 191.209 2930.37 175.033C2930.11 156.775 2945.54 142.164 2963.76 143.415Z" fill="#5B5C77" stroke="black" stroke-width="12.6333" stroke-miterlimit="10" stroke-linecap="round" stroke-linejoin="round"/>
<path d="M2918.81 228.083H2928.97C2938.12 228.083 2944.24 218.652 2940.5 210.296L2933.63 194.92L2922.37 168.075" stroke="#00010F" stroke-width="12.6333" stroke-miterlimit="10" stroke-linecap="round" stroke-linejoin="round"/>
<path d="M2831.58 346.902C2831.58 341.733 2837.7 338.094 2842.23 340.33C2855.68 346.96 2880.93 356.777 2912.5 356.777C2944.52 356.777 2970.03 346.679 2983.33 340.049C2987.87 337.789 2993.42 340.706 2993.42 345.62L2993.42 406.489C2993.42 410.124 2990.33 413.203 2986.68 413.203H2837.5C2834.17 413.203 2831.58 410.625 2831.58 407.311L2831.58 346.902Z" fill="black" stroke="black" stroke-width="12.6333" stroke-miterlimit="10" stroke-linecap="round" stroke-linejoin="round"/>
</g>
<rect x="2723" y="7" width="379" height="379" rx="189.5" stroke="black" stroke-width="12.6333" stroke-miterlimit="10" stroke-linecap="round" stroke-linejoin="round"/>
<g clip-path="url(#clip5_1703_7623)">
<rect x="3402" y="7" width="379" height="379" rx="189.5" fill="white"/>
<rect x="3537.61" y="270.72" width="115.998" height="130.281" rx="12.6333" fill="white" stroke="#00010F" stroke-width="12.6333" stroke-miterlimit="10" stroke-linecap="round" stroke-linejoin="round"/>
<path d="M3492.34 159.759C3490.62 143.168 3492.98 127.175 3498.59 112.729C3507.06 90.9091 3522.93 72.6165 3543.24 61.1161C3557.89 52.8192 3574.85 48.0576 3593.03 48.0576C3611.21 48.0576 3628.17 52.8192 3642.83 61.1161C3664.27 73.258 3680.75 92.9711 3688.82 116.413C3693.45 129.874 3695.3 144.566 3693.72 159.759L3684.34 250.001C3679.47 296.773 3640.05 332.308 3593.03 332.308C3546.01 332.308 3512.9 296.773 3508.04 250.001L3492.34 159.759Z" fill="white" stroke="#00010F" stroke-width="12.6333" stroke-miterlimit="10" stroke-linecap="round" stroke-linejoin="round"/>
<path d="M3575.77 147.405C3560.47 131.652 3534.92 132.346 3520.49 148.906L3515.57 154.557" stroke="#5B5C77" stroke-width="12.6333" stroke-miterlimit="10" stroke-linecap="round" stroke-linejoin="round"/>
<path d="M3675.25 155.669C3664.74 136.385 3639.95 130.193 3621.6 142.269L3615.34 146.39" stroke="#5B5C77" stroke-width="12.6333" stroke-miterlimit="10" stroke-linecap="round" stroke-linejoin="round"/>
<path d="M3597.81 228.083H3607.97C3617.12 228.083 3623.24 218.652 3619.5 210.296L3612.63 194.92L3601.37 168.075" stroke="#00010F" stroke-width="12.6333" stroke-miterlimit="10" stroke-linecap="round" stroke-linejoin="round"/>
<circle cx="3553.97" cy="173.797" r="9.96891" fill="black"/>
<circle cx="3637.96" cy="173.797" r="9.96891" fill="black"/>
<path d="M3702.99 146.622C3704.12 135.072 3714.42 126.755 3725.95 128.081V128.081C3737.55 129.414 3745.92 139.977 3744.58 151.565L3734.91 234.839C3733.64 245.769 3723.86 253.571 3712.92 252.383V252.383C3701.82 251.177 3693.7 241.183 3694.79 230.071L3702.99 146.622Z" fill="#5B5C77" stroke="#5B5C77" stroke-width="12.6333" stroke-miterlimit="10" stroke-linecap="round" stroke-linejoin="round"/>
<path d="M3444.97 162.545C3442.43 149.618 3450.92 137.218 3463.88 134.905V134.905C3476.93 132.578 3489.48 141.355 3491.77 154.406L3505.24 231.17C3507.4 243.487 3499.28 255.155 3486.98 257.419V257.419C3474.51 259.715 3462.42 251.487 3459.98 239.039L3444.97 162.545Z" fill="#5B5C77" stroke="#5B5C77" stroke-width="12.6333" stroke-miterlimit="10" stroke-linecap="round" stroke-linejoin="round"/>
<path d="M3595.45 289.057C3620.3 289.057 3640.45 271.93 3640.45 250.802H3550.44C3550.44 271.93 3570.59 289.057 3595.45 289.057Z" stroke="#00010F" stroke-width="12.6333" stroke-miterlimit="10" stroke-linecap="round" stroke-linejoin="round"/>
<path d="M3510.58 346.902C3510.58 341.733 3516.69 338.094 3521.23 340.33C3534.68 346.96 3559.93 356.777 3591.5 356.777C3623.52 356.777 3649.03 346.679 3662.33 340.049C3666.86 337.789 3672.42 340.706 3672.42 345.62L3672.42 406.489C3672.42 410.124 3669.32 413.203 3665.67 413.203H3516.5C3513.17 413.203 3510.58 410.625 3510.58 407.311L3510.58 346.902Z" fill="black" stroke="black" stroke-width="12.6333" stroke-miterlimit="10" stroke-linecap="round" stroke-linejoin="round"/>
<path d="M3719.15 151.079H3702.46C3704.18 135.442 3702.17 120.321 3697.13 106.466C3688.37 82.3404 3670.45 62.0515 3647.15 49.5551C3631.23 41.0159 3612.79 36.1152 3593.03 36.1152C3573.28 36.1152 3554.84 41.0159 3538.91 49.5551C3516.84 61.3913 3499.6 80.2182 3490.39 102.675C3484.3 117.543 3481.72 134.003 3483.6 151.079H3466.88" stroke="#5B5C77" stroke-width="12.6333" stroke-miterlimit="10" stroke-linecap="round" stroke-linejoin="round"/>
</g>
<rect x="3402" y="7" width="379" height="379" rx="189.5" stroke="black" stroke-width="12.6333" stroke-miterlimit="10" stroke-linecap="round" stroke-linejoin="round"/>
<g clip-path="url(#clip6_1703_7623)">
<rect x="4081" y="7" width="379" height="379" rx="189.5" fill="white"/>
<rect x="4216.61" y="270.72" width="115.998" height="130.281" rx="12.6333" fill="white" stroke="#00010F" stroke-width="12.6333" stroke-miterlimit="10" stroke-linecap="round" stroke-linejoin="round"/>
<path d="M4371.44 168.261C4372.04 160.922 4378.47 155.528 4385.81 156.213V156.213C4394.18 156.996 4399.83 165.239 4397.53 173.304L4386.51 211.935C4385.22 216.468 4380.76 219.292 4376.09 218.528V218.528C4371.22 217.73 4367.76 213.3 4368.16 208.387L4371.44 168.261Z" fill="white" stroke="#00010F" stroke-width="12.6333" stroke-miterlimit="10" stroke-linecap="round" stroke-linejoin="round"/>
<path d="M4145.06 173.306C4142.76 165.241 4148.41 156.998 4156.78 156.215V156.215C4164.11 155.53 4170.54 160.924 4171.14 168.263L4174.43 208.389C4174.83 213.302 4171.37 217.732 4166.5 218.53V218.53C4161.83 219.294 4157.37 216.469 4156.07 211.937L4145.06 173.306Z" fill="white" stroke="#00010F" stroke-width="12.6333" stroke-miterlimit="10" stroke-linecap="round" stroke-linejoin="round"/>
<path d="M4171.34 159.759C4169.62 143.168 4171.98 127.175 4177.59 112.729C4186.06 90.9091 4201.93 72.6165 4222.24 61.1161C4236.89 52.8192 4253.85 48.0576 4272.03 48.0576C4290.21 48.0576 4307.17 52.8192 4321.83 61.1161C4343.27 73.258 4359.75 92.9711 4367.82 116.413C4372.45 129.874 4374.3 144.566 4372.72 159.759L4363.34 250.001C4358.47 296.773 4319.05 332.308 4272.03 332.308C4225.01 332.308 4191.9 296.773 4187.04 250.001L4171.34 159.759Z" fill="white" stroke="#00010F" stroke-width="12.6333" stroke-miterlimit="10" stroke-linecap="round" stroke-linejoin="round"/>
<path fill-rule="evenodd" clip-rule="evenodd" d="M4172.1 132.914C4199.05 109.878 4233.83 96.0002 4271.81 96.0002C4310.03 96.0002 4345.01 110.054 4372.04 133.353C4371.12 127.536 4369.69 121.873 4367.82 116.413C4359.75 92.9711 4343.27 73.258 4321.83 61.1161C4307.17 52.8192 4290.21 48.0576 4272.03 48.0576C4253.85 48.0576 4236.89 52.8192 4222.24 61.1161C4201.93 72.6165 4186.07 90.9091 4177.59 112.729C4175.09 119.177 4173.23 125.934 4172.1 132.914Z" fill="#00010F"/>
<path d="M4172.1 132.914L4165.86 131.899C4165.44 134.515 4166.69 137.119 4169 138.419C4171.31 139.719 4174.18 139.438 4176.2 137.716L4172.1 132.914ZM4372.04 133.353L4367.91 138.137C4369.92 139.868 4372.79 140.162 4375.11 138.872C4377.43 137.582 4378.69 134.984 4378.28 132.366L4372.04 133.353ZM4367.82 116.413L4361.84 118.467L4361.84 118.467L4367.82 116.413ZM4321.83 61.1161L4318.71 66.6127L4318.71 66.6127L4321.83 61.1161ZM4222.24 61.1161L4219.12 55.6196L4222.24 61.1161ZM4177.59 112.729L4171.71 110.443L4171.71 110.443L4177.59 112.729ZM4176.2 137.716C4202.06 115.613 4235.41 102.317 4271.81 102.317V89.6836C4232.26 89.6836 4196.04 104.142 4167.99 128.112L4176.2 137.716ZM4271.81 102.317C4308.45 102.317 4341.98 115.782 4367.91 138.137L4376.16 128.569C4348.04 104.326 4311.61 89.6836 4271.81 89.6836V102.317ZM4361.84 118.467C4363.6 123.585 4364.94 128.891 4365.8 134.341L4378.28 132.366C4377.3 126.182 4375.79 120.162 4373.79 114.358L4361.84 118.467ZM4318.71 66.6127C4338.82 77.9995 4354.28 96.4927 4361.84 118.467L4373.79 114.358C4365.22 89.4495 4347.71 68.5165 4324.94 55.6196L4318.71 66.6127ZM4272.03 54.3743C4289.09 54.3743 4304.99 58.8394 4318.71 66.6127L4324.94 55.6196C4309.36 46.7989 4291.33 41.741 4272.03 41.741V54.3743ZM4225.35 66.6127C4239.08 58.8394 4254.97 54.3743 4272.03 54.3743V41.741C4252.74 41.741 4234.7 46.7989 4219.12 55.6196L4225.35 66.6127ZM4183.48 115.015C4191.42 94.5577 4206.3 77.3973 4225.35 66.6127L4219.12 55.6196C4197.55 67.8357 4180.71 87.2606 4171.71 110.443L4183.48 115.015ZM4178.33 133.929C4179.4 127.389 4181.14 121.058 4183.48 115.015L4171.71 110.443C4169.04 117.296 4167.07 124.478 4165.86 131.899L4178.33 133.929Z" fill="#00010F"/>
<path d="M4367.82 113.412C4369.69 118.873 4371.12 124.536 4372.04 130.353C4345.01 107.054 4310.03 93 4271.81 93C4233.83 93 4199.05 106.877 4172.1 129.914C4173.23 122.934 4175.09 116.177 4177.59 109.729" stroke="#00010F" stroke-width="32.63" stroke-miterlimit="10" stroke-linecap="round" stroke-linejoin="round"/>
<path d="M4254.77 147.405C4239.47 131.652 4213.93 132.346 4199.5 148.906L4194.57 154.557" stroke="#5B5C77" stroke-width="12.6333" stroke-miterlimit="10" stroke-linecap="round" stroke-linejoin="round"/>
<path d="M4354.26 155.669C4343.75 136.385 4318.95 130.193 4300.61 142.269L4294.35 146.39" stroke="#5B5C77" stroke-width="12.6333" stroke-miterlimit="10" stroke-linecap="round" stroke-linejoin="round"/>
<path d="M4354.26 155.669C4343.75 136.385 4318.95 130.193 4300.61 142.269L4294.35 146.39" stroke="#5B5C77" stroke-width="12.6333" stroke-miterlimit="10" stroke-linecap="round" stroke-linejoin="round"/>
<path d="M4276.82 228.083H4286.97C4296.12 228.083 4302.24 218.652 4298.5 210.296L4291.63 194.92L4280.37 168.075" stroke="#00010F" stroke-width="12.6333" stroke-miterlimit="10" stroke-linecap="round" stroke-linejoin="round"/>
<path d="M4274.45 289.057C4299.3 289.057 4319.45 271.93 4319.45 250.802H4229.44C4229.44 271.93 4249.59 289.057 4274.45 289.057Z" stroke="#00010F" stroke-width="12.6333" stroke-miterlimit="10" stroke-linecap="round" stroke-linejoin="round"/>
<circle cx="4232.97" cy="173.797" r="9.96891" fill="black"/>
<circle cx="4316.96" cy="173.797" r="9.96891" fill="black"/>
<path d="M4333.91 353.175C4337.61 352.581 4340.81 355.288 4340.81 359.012L4340.81 393.592C4340.81 397.208 4337.79 400.284 4334.18 400.334L4210.55 402.026C4207.2 402.072 4204.57 399.471 4204.57 396.109L4204.57 361.624C4204.57 357.642 4208.2 354.416 4212.1 354.935L4271.79 362.88C4272.39 362.96 4273 362.951 4273.61 362.853L4333.91 353.175Z" fill="#5B5C77" stroke="black" stroke-width="12.6333" stroke-miterlimit="10" stroke-linecap="round" stroke-linejoin="round"/>
</g>
<rect x="4081" y="7" width="379" height="379" rx="189.5" stroke="black" stroke-width="12.6333" stroke-miterlimit="10" stroke-linecap="round" stroke-linejoin="round"/>
<defs>
<clipPath id="clip0_1703_7623">
<rect x="7" y="7" width="379" height="379" rx="189.5" fill="white"/>
</clipPath>
<clipPath id="clip1_1703_7623">
<rect x="686" y="7" width="379" height="379" rx="189.5" fill="white"/>
</clipPath>
<clipPath id="clip2_1703_7623">
<rect x="1365" y="7" width="379" height="379" rx="189.5" fill="white"/>
</clipPath>
<clipPath id="clip3_1703_7623">
<rect x="2044" y="7" width="379" height="379" rx="189.5" fill="white"/>
</clipPath>
<clipPath id="clip4_1703_7623">
<rect x="2723" y="7" width="379" height="379" rx="189.5" fill="white"/>
</clipPath>
<clipPath id="clip5_1703_7623">
<rect x="3402" y="7" width="379" height="379" rx="189.5" fill="white"/>
</clipPath>
<clipPath id="clip6_1703_7623">
<rect x="4081" y="7" width="379" height="379" rx="189.5" fill="white"/>
</clipPath>
</defs>
</svg>
