<svg width="393" height="393" viewBox="0 0 393 393" fill="none" xmlns="http://www.w3.org/2000/svg">
<g clip-path="url(#clip0_1724_5904)">
<rect x="7" y="7" width="379" height="379" rx="189.5" fill="white"/>
<path d="M124.43 416.939L141.483 303.353H255.856L272.909 416.939H124.43Z" fill="#A2A3B6" stroke="black" stroke-width="12.6333"/>
<rect x="156.719" y="231.118" width="84.5755" height="111.202" rx="42.2877" fill="#A2A3B6" stroke="#00010F" stroke-width="12.6333" stroke-miterlimit="10" stroke-linecap="round" stroke-linejoin="round"/>
<path d="M299.507 154.372C299.507 110.613 251.4 75.1387 207.64 75.1387H188.056C144.297 75.1387 96.1895 110.613 96.1895 154.372V221.13C96.1895 228.02 101.775 233.605 108.665 233.605C114.499 233.605 119.554 237.649 120.836 243.34L131.79 291.981C138.027 319.679 171.382 330.937 193.129 312.685L194.43 311.593C196.107 310.186 198.551 310.184 200.23 311.588C222.329 330.08 256.165 318.121 261.736 289.849L270.49 245.42C271.843 238.555 277.863 233.605 284.861 233.605C292.949 233.605 299.507 227.048 299.507 218.959V154.372Z" fill="#A2A3B6" stroke="#00010F" stroke-width="12.6333" stroke-miterlimit="10" stroke-linecap="round" stroke-linejoin="round"/>
<circle cx="160.217" cy="160.249" r="13.4158" fill="black" stroke="white" stroke-width="12.6333"/>
<circle cx="229.818" cy="160.249" r="13.4158" fill="black" stroke="white" stroke-width="12.6333"/>
<path d="M344.186 234.594L302.062 283.604C289.174 298.599 263.313 285.991 267.645 265.971C271.249 249.323 274.558 233.04 276.969 219.237C279.353 205.591 280.946 193.906 280.946 186.699C280.946 175.567 278.508 160.277 275.324 144.925C272.115 129.45 268.05 113.455 264.606 100.725C261.932 90.8412 268.395 80.8139 278.302 79.2977C283.703 78.4713 289.162 80.3734 292.88 84.3768L330.964 125.386C342.159 137.442 349.475 152.582 351.964 168.844L355.815 194.011C358.046 208.587 353.798 223.411 344.186 234.594Z" fill="#A2A3B6" stroke="black" stroke-width="12.6333"/>
<path d="M48.8098 234.594L90.9338 283.604C103.822 298.599 129.683 285.991 125.351 265.971C121.747 249.323 118.438 233.04 116.027 219.237C113.643 205.591 112.05 193.906 112.05 186.699C112.05 175.567 114.489 160.277 117.672 144.925C120.881 129.45 124.946 113.455 128.39 100.725C131.064 90.8412 124.601 80.8139 114.694 79.2977C109.294 78.4713 103.834 80.3734 100.116 84.3768L62.0324 125.386C50.8372 137.442 43.5211 152.582 41.0325 168.844L37.1812 194.011C34.9506 208.587 39.1981 223.411 48.8098 234.594Z" fill="#A2A3B6" stroke="black" stroke-width="12.6333"/>
<path fill-rule="evenodd" clip-rule="evenodd" d="M228.197 259.37C228.197 251.783 222.047 245.633 214.461 245.633H181.252C173.666 245.633 167.516 251.783 167.516 259.37V268.195C167.516 270.907 169.714 273.106 172.427 273.106V273.106C175.139 273.106 177.338 275.305 177.338 278.017V285.281C177.338 292.006 182.789 297.457 189.513 297.457H206.212C212.936 297.457 218.387 292.006 218.387 285.281V278.011C218.387 275.302 220.583 273.106 223.292 273.106V273.106C226.001 273.106 228.197 270.91 228.197 268.201V259.37Z" fill="white"/>
<path d="M181.252 251.949H214.461V239.316H181.252V251.949ZM173.832 268.195V259.37H161.199V268.195H173.832ZM183.655 285.281V278.017H171.021V285.281H183.655ZM206.212 291.14H189.513V303.773H206.212V291.14ZM212.071 278.011V285.281H224.704V278.011H212.071ZM221.881 259.37V268.201H234.514V259.37H221.881ZM223.292 279.423C229.49 279.423 234.514 274.399 234.514 268.201H221.881C221.881 267.422 222.513 266.79 223.292 266.79V279.423ZM224.704 278.011C224.704 278.791 224.072 279.423 223.292 279.423V266.79C217.095 266.79 212.071 271.814 212.071 278.011H224.704ZM206.212 303.773C216.425 303.773 224.704 295.494 224.704 285.281H212.071C212.071 288.517 209.448 291.14 206.212 291.14V303.773ZM171.021 285.281C171.021 295.494 179.3 303.773 189.513 303.773V291.14C186.278 291.14 183.655 288.517 183.655 285.281H171.021ZM172.427 279.423C171.651 279.423 171.021 278.794 171.021 278.017H183.655C183.655 271.816 178.628 266.79 172.427 266.79V279.423ZM161.199 268.195C161.199 274.396 166.226 279.423 172.427 279.423V266.79C173.203 266.79 173.832 267.419 173.832 268.195H161.199ZM214.461 251.949C218.559 251.949 221.881 255.272 221.881 259.37H234.514C234.514 248.294 225.536 239.316 214.461 239.316V251.949ZM181.252 239.316C170.177 239.316 161.199 248.294 161.199 259.37H173.832C173.832 255.272 177.154 251.949 181.252 251.949V239.316Z" fill="#00010F"/>
</g>
<rect x="7" y="7" width="379" height="379" rx="189.5" stroke="black" stroke-width="12.6333" stroke-miterlimit="10" stroke-linecap="round" stroke-linejoin="round"/>
<defs>
<clipPath id="clip0_1724_5904">
<rect x="7" y="7" width="379" height="379" rx="189.5" fill="white"/>
</clipPath>
</defs>
</svg>
