<svg width="393" height="393" viewBox="0 0 393 393" fill="none" xmlns="http://www.w3.org/2000/svg">
<g clip-path="url(#clip0_1724_6012)">
<rect x="7" y="7" width="379" height="379" rx="189.5" fill="white"/>
<rect x="142.609" y="270.72" width="115.998" height="130.281" rx="12.6333" fill="white" stroke="#00010F" stroke-width="12.6333" stroke-miterlimit="10" stroke-linecap="round" stroke-linejoin="round"/>
<path d="M297.436 168.262C298.036 160.922 304.467 155.528 311.799 156.214V156.214C320.167 156.996 325.822 165.24 323.522 173.304L312.505 211.935C311.213 216.468 306.748 219.292 302.082 218.528V218.528C297.214 217.731 293.748 213.301 294.151 208.387L297.436 168.262Z" fill="white" stroke="#00010F" stroke-width="12.6333" stroke-miterlimit="10" stroke-linecap="round" stroke-linejoin="round"/>
<path d="M71.056 173.306C68.7562 165.241 74.4105 156.998 82.7788 156.215V156.215C90.1107 155.53 96.5415 160.924 97.1423 168.263L100.427 208.389C100.829 213.302 97.3643 217.732 92.4955 218.53V218.53C87.8302 219.294 83.365 216.469 82.0725 211.937L71.056 173.306Z" fill="white" stroke="#00010F" stroke-width="12.6333" stroke-miterlimit="10" stroke-linecap="round" stroke-linejoin="round"/>
<path d="M97.3405 159.759C95.6155 143.168 97.9846 127.175 103.593 112.729C112.065 90.9091 127.927 72.6165 148.236 61.1161C162.888 52.8192 179.854 48.0576 198.03 48.0576C216.206 48.0576 233.173 52.8192 247.825 61.1161C269.267 73.258 285.752 92.9711 293.816 116.413C298.446 129.874 300.3 144.566 298.72 159.759L289.338 250.001C284.475 296.773 245.054 332.308 198.03 332.308C151.006 332.308 117.903 296.773 113.04 250.001L97.3405 159.759Z" fill="white" stroke="#00010F" stroke-width="12.6333" stroke-miterlimit="10" stroke-linecap="round" stroke-linejoin="round"/>
<path d="M202.814 161.758L224.502 210.296C228.236 218.652 222.121 228.083 212.968 228.083H202.814" stroke="#00010F" stroke-width="12.6333" stroke-miterlimit="10" stroke-linecap="round" stroke-linejoin="round"/>
<path d="M85.959 148.335L107.982 164.5L187.936 155.774C194.769 155.028 201.663 155.028 208.496 155.774L287.016 164.343L310.201 150.704" stroke="#5B5C77" stroke-width="12.6333" stroke-miterlimit="10" stroke-linecap="round" stroke-linejoin="round"/>
<path d="M200.446 289.057C225.302 289.057 245.452 271.93 245.452 250.802H155.439C155.439 271.93 175.589 289.057 200.446 289.057Z" stroke="#00010F" stroke-width="12.6333" stroke-miterlimit="10" stroke-linecap="round" stroke-linejoin="round"/>
<path d="M140.386 143.929L147.864 143.415C166.085 142.163 181.512 156.774 181.247 175.033C181.012 191.208 168.433 204.483 152.291 205.592L144.813 206.106C128.67 207.215 114.333 195.788 111.809 179.802C108.959 161.758 122.165 145.18 140.386 143.929Z" fill="white" stroke="#5B5C77" stroke-width="12.6333" stroke-miterlimit="10" stroke-linecap="round" stroke-linejoin="round"/>
<path d="M247.757 143.415L255.235 143.929C273.456 145.181 286.662 161.758 283.813 179.802C281.288 195.789 266.951 207.215 250.808 206.106L243.331 205.593C227.188 204.484 214.609 191.209 214.374 175.033C214.109 156.775 229.536 142.164 247.757 143.415Z" fill="white" stroke="#5B5C77" stroke-width="12.6333" stroke-miterlimit="10" stroke-linecap="round" stroke-linejoin="round"/>
<path d="M202.814 228.082H212.968C222.121 228.082 228.236 218.652 224.502 210.295L217.632 194.92L206.368 168.074" stroke="#00010F" stroke-width="12.6333" stroke-miterlimit="10" stroke-linecap="round" stroke-linejoin="round"/>
<path d="M115.578 346.902C115.578 341.732 121.694 338.093 126.231 340.33C139.683 346.96 164.929 356.776 196.497 356.776C228.516 356.776 254.03 346.678 267.332 340.048C271.864 337.789 277.417 340.706 277.417 345.62L277.417 406.489C277.417 410.124 274.324 413.203 270.674 413.203H121.496C118.167 413.203 115.578 410.625 115.578 407.31L115.578 346.902Z" fill="black" stroke="black" stroke-width="8.44429" stroke-miterlimit="10" stroke-linecap="round" stroke-linejoin="round"/>
<circle cx="146.336" cy="173.796" r="9.96891" fill="black"/>
<circle cx="249.279" cy="173.796" r="9.96891" fill="black"/>
</g>
<rect x="7" y="7" width="379" height="379" rx="189.5" stroke="black" stroke-width="12.6333" stroke-miterlimit="10" stroke-linecap="round" stroke-linejoin="round"/>
<defs>
<clipPath id="clip0_1724_6012">
<rect x="7" y="7" width="379" height="379" rx="189.5" fill="white"/>
</clipPath>
</defs>
</svg>
