<svg width="393" height="393" viewBox="0 0 393 393" fill="none" xmlns="http://www.w3.org/2000/svg">
<g clip-path="url(#clip0_1724_5861)">
<rect x="7" y="7" width="379" height="379" rx="189.5" fill="white"/>
<rect x="142.609" y="270.72" width="115.998" height="130.281" rx="12.6333" fill="white" stroke="#00010F" stroke-width="12.6333" stroke-miterlimit="10" stroke-linecap="round" stroke-linejoin="round"/>
<path d="M297.443 168.261C298.044 160.922 304.475 155.528 311.807 156.213V156.213C320.175 156.996 325.829 165.239 323.53 173.304L312.513 211.935C311.221 216.468 306.755 219.292 302.09 218.528V218.528C297.221 217.73 293.756 213.3 294.158 208.387L297.443 168.261Z" fill="white" stroke="#00010F" stroke-width="12.6333" stroke-miterlimit="10" stroke-linecap="round" stroke-linejoin="round"/>
<path d="M71.058 173.306C68.7581 165.241 74.4124 156.998 82.7807 156.215V156.215C90.1126 155.53 96.5434 160.924 97.1443 168.263L100.429 208.389C100.831 213.302 97.3662 217.732 92.4974 218.53V218.53C87.8322 219.294 83.367 216.469 82.0744 211.937L71.058 173.306Z" fill="white" stroke="#00010F" stroke-width="12.6333" stroke-miterlimit="10" stroke-linecap="round" stroke-linejoin="round"/>
<path d="M97.3405 159.759C95.6155 143.168 97.9846 127.175 103.593 112.729C112.065 90.9091 127.927 72.6165 148.236 61.1161C162.888 52.8192 179.854 48.0576 198.03 48.0576C216.206 48.0576 233.173 52.8192 247.825 61.1161C269.267 73.258 285.752 92.9711 293.816 116.413C298.446 129.874 300.3 144.566 298.72 159.759L289.338 250.001C284.475 296.773 245.054 332.308 198.03 332.308C151.006 332.308 117.903 296.773 113.04 250.001L97.3405 159.759Z" fill="white" stroke="#00010F" stroke-width="12.6333" stroke-miterlimit="10" stroke-linecap="round" stroke-linejoin="round"/>
<path fill-rule="evenodd" clip-rule="evenodd" d="M98.0957 132.914C125.048 109.878 159.835 96.0002 197.81 96.0002C236.027 96.0002 271.013 110.054 298.037 133.353C297.116 127.536 295.695 121.873 293.816 116.413C285.753 92.9711 269.268 73.258 247.826 61.1161C233.174 52.8192 216.207 48.0576 198.031 48.0576C179.855 48.0576 162.888 52.8192 148.236 61.1161C127.927 72.6165 112.065 90.9091 103.594 112.729C101.09 119.177 99.2323 125.934 98.0957 132.914Z" fill="#00010F"/>
<path d="M98.0957 132.914L91.8611 131.899C91.4351 134.515 92.688 137.119 94.9983 138.419C97.3086 139.719 100.185 139.438 102.2 137.716L98.0957 132.914ZM298.037 133.353L293.912 138.137C295.92 139.868 298.794 140.162 301.11 138.872C303.426 137.582 304.69 134.984 304.276 132.366L298.037 133.353ZM293.816 116.413L287.843 118.467L287.843 118.467L293.816 116.413ZM247.826 61.1161L244.713 66.6127L244.713 66.6127L247.826 61.1161ZM148.236 61.1161L145.124 55.6196L148.236 61.1161ZM103.594 112.729L97.7055 110.443L97.7055 110.443L103.594 112.729ZM102.2 137.716C128.06 115.613 161.406 102.317 197.81 102.317V89.6836C158.263 89.6836 122.037 104.142 93.9916 128.112L102.2 137.716ZM197.81 102.317C234.446 102.317 267.983 115.782 293.912 138.137L302.162 128.569C274.043 104.326 237.608 89.6836 197.81 89.6836V102.317ZM287.843 118.467C289.603 123.585 290.935 128.891 291.798 134.341L304.276 132.366C303.297 126.182 301.786 120.162 299.789 114.358L287.843 118.467ZM244.713 66.6127C264.822 77.9995 280.284 96.4927 287.843 118.467L299.789 114.358C291.221 89.4495 273.714 68.5165 250.938 55.6196L244.713 66.6127ZM198.031 54.3743C215.088 54.3743 230.986 58.8394 244.713 66.6127L250.938 55.6196C235.362 46.7989 217.326 41.741 198.031 41.741V54.3743ZM151.349 66.6127C165.076 58.8394 180.974 54.3743 198.031 54.3743V41.741C178.736 41.741 160.7 46.7989 145.124 55.6196L151.349 66.6127ZM109.482 115.015C117.425 94.5577 132.304 77.3973 151.349 66.6127L145.124 55.6196C123.551 67.8357 106.706 87.2606 97.7055 110.443L109.482 115.015ZM104.33 133.929C105.395 127.389 107.136 121.058 109.482 115.015L97.7055 110.443C95.0447 117.296 93.0694 124.478 91.8611 131.899L104.33 133.929Z" fill="#00010F"/>
<path d="M293.816 113.412C295.695 118.873 297.116 124.536 298.037 130.353C271.013 107.054 236.027 93 197.81 93C159.835 93 125.048 106.877 98.0957 129.914C99.2323 122.934 101.09 116.177 103.594 109.729" stroke="#00010F" stroke-width="32.63" stroke-miterlimit="10" stroke-linecap="round" stroke-linejoin="round"/>
<path d="M180.775 147.405C165.473 131.652 139.929 132.346 125.498 148.906L120.573 154.557" stroke="#5B5C77" stroke-width="12.6333" stroke-miterlimit="10" stroke-linecap="round" stroke-linejoin="round"/>
<path d="M280.256 155.669C269.747 136.385 244.955 130.193 226.606 142.269L220.345 146.39" stroke="#5B5C77" stroke-width="12.6333" stroke-miterlimit="10" stroke-linecap="round" stroke-linejoin="round"/>
<path d="M280.256 155.669C269.747 136.385 244.955 130.193 226.606 142.269L220.345 146.39" stroke="#5B5C77" stroke-width="12.6333" stroke-miterlimit="10" stroke-linecap="round" stroke-linejoin="round"/>
<path d="M202.816 228.083H212.97C222.123 228.083 228.238 218.652 224.504 210.296L217.634 194.92L206.37 168.075" stroke="#00010F" stroke-width="12.6333" stroke-miterlimit="10" stroke-linecap="round" stroke-linejoin="round"/>
<path d="M200.448 289.057C225.304 289.057 245.454 271.93 245.454 250.802H155.441C155.441 271.93 175.591 289.057 200.448 289.057Z" stroke="#00010F" stroke-width="12.6333" stroke-miterlimit="10" stroke-linecap="round" stroke-linejoin="round"/>
<circle cx="158.973" cy="173.797" r="9.96891" fill="black"/>
<circle cx="242.963" cy="173.797" r="9.96891" fill="black"/>
<path d="M259.912 353.175C263.612 352.581 266.811 355.288 266.811 359.012L266.811 393.592C266.811 397.208 263.786 400.284 260.182 400.334L136.546 402.026C133.196 402.072 130.568 399.471 130.568 396.109L130.568 361.624C130.568 357.642 134.199 354.416 138.096 354.935L197.786 362.88C198.385 362.96 198.998 362.951 199.606 362.853L259.912 353.175Z" fill="#5B5C77" stroke="black" stroke-width="12.6333" stroke-miterlimit="10" stroke-linecap="round" stroke-linejoin="round"/>
</g>
<rect x="7" y="7" width="379" height="379" rx="189.5" stroke="black" stroke-width="12.6333" stroke-miterlimit="10" stroke-linecap="round" stroke-linejoin="round"/>
<defs>
<clipPath id="clip0_1724_5861">
<rect x="7" y="7" width="379" height="379" rx="189.5" fill="white"/>
</clipPath>
</defs>
</svg>
