<svg width="80" height="80" viewBox="0 0 80 80" fill="none" xmlns="http://www.w3.org/2000/svg">
<g clip-path="url(#clip0_1659_3005)">
<rect width="80" height="80" fill="#083344"/>
<g clip-path="url(#clip1_1659_3005)">
<path d="M36.8156 37.7574C37.2465 37.3277 37.7317 36.9561 38.259 36.6522L36.7332 44.1578H35.5537C35.1001 43.5392 34.8691 42.7804 34.8691 41.9309C34.8691 40.4875 35.5537 39.0029 36.8156 37.7574Z" fill="white"/>
<path d="M39.3227 55.5728C43.0178 54.9625 46.7128 53.0572 49.5666 50.2117C50.5565 49.2348 51.4513 48.166 52.2389 47.0198L51.3316 51.4571C51.2079 51.5726 51.0842 51.6881 50.977 51.8035C48.6384 54.115 45.8237 55.8883 42.7291 56.9997H39.0176L39.3145 55.5811L39.3227 55.5728Z" fill="white"/>
<path d="M63.3243 38.4998C63.349 38.2111 63.3738 37.9224 63.4068 37.6337H65.6337L64.0666 45.4197H61.5098C62.4583 43.1515 63.0769 40.8257 63.3243 38.4915V38.4998Z" fill="white"/>
<path d="M62.3014 37.6337C62.2767 37.8812 62.2519 38.1286 62.219 38.376C61.9715 40.7514 61.3282 43.1186 60.3219 45.4115H56.9238C57.9136 43.3495 58.5734 41.2051 58.8208 39.0606C58.8868 38.5905 58.9281 38.1121 58.9528 37.6337H62.2932H62.3014Z" fill="white"/>
<path d="M65.5596 24.0082H68.735L67.6298 29.3858C67.1808 27.5108 66.4876 25.7028 65.5678 24.0082L65.5596 24.0082Z" fill="white"/>
<path d="M64.2983 24.0082C64.8138 24.8921 65.2631 25.8128 65.6427 26.763C66.269 28.3446 66.7064 29.9946 66.9458 31.6788H62.9374C62.2884 28.8545 60.9766 26.2252 59.1104 24.0082H64.3065H64.2983Z" fill="white"/>
<path d="M57.8478 37.6337C57.823 38.0626 57.79 38.4998 57.7405 38.9369C57.4684 41.1143 56.7755 43.3083 55.6951 45.4115H53.2207C54.2517 43.5557 54.928 41.6174 55.2167 39.6627C55.3157 38.9781 55.3651 38.3018 55.3651 37.6337H57.8395H57.8478Z" fill="white"/>
<path d="M50.1772 56.9997H45.5254C47.4847 56.0378 49.3026 54.8112 50.9277 53.3541L50.1772 56.9997Z" fill="white"/>
<path d="M35.3148 52.2902L34.8447 54.5996C32.4693 54.2367 30.3909 53.2139 28.7413 51.5726C28.0244 50.8669 27.4132 50.0613 26.9268 49.1807H30.1847C30.3496 49.3704 30.5146 49.5436 30.6795 49.7168C31.9992 51.0365 33.5663 51.8943 35.3313 52.2902H35.3148Z" fill="white"/>
<path d="M35.9745 49.1972L35.5621 51.2179C34.1202 50.8908 32.7892 50.1912 31.7021 49.189H35.991L35.9745 49.2055V49.1972Z" fill="white"/>
<path d="M21.9699 42.8299C22.3328 39.1596 23.9493 35.4316 26.5887 32.1077L25.6814 36.3801H26.3412C25.1041 38.7472 24.4442 41.2463 24.4442 43.7042V44.166H24.0648L23.0586 49.1725H25.6732C26.2412 50.3489 27.0054 51.4199 27.9331 52.3397C29.7476 54.1377 32.024 55.2594 34.6138 55.6553L34.3417 56.9997H29.8383C28.4264 56.3894 27.14 55.5224 26.0443 54.4429C22.9926 51.4159 21.5575 47.292 21.9781 42.8134L21.9699 42.8299Z" fill="white"/>
<path d="M39.8671 30.3179L39.5867 31.6705H36.3535C37.4536 31.0569 38.6373 30.6068 39.8671 30.3344V30.3179Z" fill="white"/>
<path d="M40.1149 29.1632C38.0777 29.5343 36.0982 30.4004 34.3167 31.6705H31.3145C34.0692 29.0477 37.3601 27.4311 40.5768 26.8868L40.0984 29.1632H40.1149Z" fill="white"/>
<path d="M58.0706 31.6788C57.3283 29.6168 56.1406 27.7775 54.524 26.1857C53.6654 25.3353 52.6974 24.603 51.6455 24.0082L57.65 24.0082C59.6728 26.1646 61.1047 28.8067 61.8069 31.6788H58.0541H58.0706Z" fill="white"/>
<path d="M51.7445 28.957C50.4248 27.662 48.8413 26.7135 47.0185 26.1527C46.515 26.0005 46.0027 25.8793 45.4844 25.7898L45.8308 24.0082H49.0475C50.8045 24.6415 52.403 25.649 53.7322 26.961C55.1179 28.3466 56.1736 29.9302 56.8664 31.6788H55.3983L54.8787 34.1861L54.8375 34.0211C54.2601 32.1241 53.2126 30.4333 51.728 28.957H51.7445Z" fill="white"/>
<path d="M47.2495 48.158C52.4952 42.9618 53.221 35.8439 48.9486 31.6045C47.7939 30.4663 46.367 29.6828 44.7587 29.2951L45.2535 26.8702C47.4227 27.2496 49.4022 28.1899 50.961 29.7405C53.0478 31.8025 54.1777 34.3593 54.2767 37.2131C54.3015 37.9853 54.2573 38.7581 54.1447 39.5225C53.6334 43.0196 51.7281 46.5496 48.7836 49.4611C46.2103 52.018 42.8946 53.7913 39.5625 54.4428L40.0161 52.2489C42.5895 51.6881 45.1298 50.2694 47.2743 48.158H47.2495Z" fill="white"/>
<path d="M29.1045 43.0278C29.1045 40.7762 29.8633 38.4585 31.2489 36.3883H33.2449C32.674 37.1099 32.1947 37.8995 31.818 38.7389C31.2654 39.9596 30.9933 41.2133 30.9933 42.4505C30.9933 43.0278 31.051 43.6217 31.183 44.1825H29.1705C29.1292 43.8031 29.1045 43.4237 29.1045 43.0278Z" fill="white"/>
<path d="M36.7169 36.3801C36.4806 36.5681 36.2548 36.7691 36.0406 36.9822C34.5725 38.442 33.7642 40.1988 33.7642 41.9309C33.7642 42.7392 33.9456 43.498 34.2756 44.1578H32.3208C32.1657 43.5936 32.088 43.0109 32.0899 42.4258C32.0899 40.3638 33.0301 38.1863 34.6797 36.3883H36.7252L36.7169 36.3801Z" fill="white"/>
<path d="M25.5654 43.7042C25.5654 41.2298 26.2665 38.7389 27.5944 36.3883H29.9533C28.6914 38.4833 27.9986 40.7844 27.9986 43.0361C27.9986 43.4237 28.0315 43.8031 28.081 44.1743H25.5819C25.5736 44.0204 25.5681 43.8665 25.5654 43.7124V43.7042Z" fill="white"/>
<path d="M16.2788 45.3702C16.2788 47.8693 16.7407 50.2694 17.6315 52.4799C18.2839 54.1082 19.1733 55.6312 20.2708 56.9997H15.3468C14.8065 56.0946 14.3377 55.1487 13.9447 54.1707C13.298 52.5605 12.8547 50.8759 12.625 49.156L15.9489 32.9984C17.5985 29.9797 19.7429 27.1424 22.3657 24.5526C22.5554 24.3629 22.7451 24.1815 22.9431 24H27.6609C26.7481 24.7277 25.8753 25.5041 25.0463 26.3259C22.2008 29.1467 19.9986 32.2644 18.4892 35.6047C17.0294 38.8214 16.2871 42.1206 16.2871 45.3537L16.2788 45.3702Z" fill="white"/>
<path d="M12.93 54.5831C13.2606 55.4121 13.6435 56.2193 14.0765 56.9997H11L12.0475 51.9355C12.2787 52.8331 12.568 53.7148 12.9135 54.5749L12.93 54.5831Z" fill="white"/>
<path d="M44.8165 40.0091C44.734 41.2875 44.0989 42.566 43.0597 43.5887C42.6114 44.0299 42.1066 44.4099 41.5586 44.7186L43.2577 36.512C43.4391 36.6275 43.5876 36.7595 43.7525 36.8997C44.5443 37.6997 44.932 38.7967 44.8412 40.0339L44.8165 40.0091Z" fill="white"/>
<path d="M48.7675 39.0854C48.7675 37.1471 48.0252 35.3986 46.6231 34.0129C45.9059 33.305 45.0373 32.7692 44.0828 32.4458L44.5199 30.3509C45.922 30.6808 47.1592 31.3736 48.149 32.3716C51.9925 36.1656 51.2666 42.6237 46.4746 47.3827C44.6271 49.1973 42.4497 50.4757 40.2393 51.0613L40.6517 49.0406C42.3837 48.5292 44.0085 47.5559 45.3777 46.195C47.5551 44.0341 48.7593 41.4938 48.7593 39.0854H48.7675Z" fill="white"/>
<path d="M44.6096 45.4197C43.5044 46.5249 42.2178 47.3167 40.9229 47.8115L41.2775 46.0795C42.231 45.6678 43.0983 45.0802 43.8343 44.3474C45.0715 43.1433 45.8138 41.6256 45.9293 40.0998C46.053 38.5657 45.5582 37.1553 44.5272 36.1243C44.2233 35.8295 43.8789 35.5796 43.5044 35.382L43.8838 33.5262C44.6261 33.8067 45.3025 34.2273 45.8633 34.7882C47.051 35.9676 47.6779 37.4522 47.6779 39.0936C47.6779 41.2215 46.5891 43.4649 44.6261 45.4279L44.6096 45.4197Z" fill="white"/>
<path d="M26.918 31.6788C27.4721 31.0101 28.0584 30.3687 28.6748 29.757C31.479 26.9775 34.7452 25.0557 38.0773 24.0082H41.1703L40.8074 25.7403C36.9721 26.2929 33.2193 28.2147 30.2171 31.2086C30.0522 31.3736 29.9037 31.522 29.7552 31.6788H26.918Z" fill="white"/>
<path d="M19.4958 36.0501C20.9474 32.8335 23.0754 29.8312 25.8219 27.1094C26.9507 25.9846 28.1639 24.9479 29.451 24.0082H35.0595C34.8945 24.0907 34.7131 24.1732 34.5316 24.2557C32.0985 25.4434 29.8716 27.0352 27.9004 28.9817C25.8219 31.0437 24.1641 33.2871 22.9681 35.6625C21.8134 37.9719 21.1041 40.3473 20.8732 42.7226C20.4195 47.5064 21.9784 51.9438 25.261 55.2017C25.9438 55.8813 26.6988 56.4842 27.5127 56.9997H21.7062C20.4114 55.5506 19.3788 53.8872 18.6545 52.084C17.8132 49.989 17.3926 47.7291 17.3926 45.362C17.3926 42.269 18.1019 39.1431 19.4958 36.0419V36.0501Z" fill="white"/>
<path d="M17.8127 24.0082H21.3593C19.5447 25.8228 17.9776 27.7528 16.625 29.7817L17.8127 24.0082Z" fill="white"/>
</g>
</g>
<defs>
<clipPath id="clip0_1659_3005">
<rect width="80" height="80" fill="white"/>
</clipPath>
<clipPath id="clip1_1659_3005">
<rect width="57.7347" height="33" fill="white" transform="translate(11 24)"/>
</clipPath>
</defs>
</svg>
