<svg width="80" height="80" viewBox="0 0 80 80" fill="none" xmlns="http://www.w3.org/2000/svg">
<rect width="80" height="80" fill="#146FF4"/>
<path d="M38.044 30C34.727 30 32.4924 31.4505 31.6196 33.0902H31.5148C30.607 31.3875 28.6169 30 25.6491 30C23.24 30 21.3546 30.8199 20.0278 32.7118H19.923L19.6088 30.3784H15V49.9995H20.7959V39.2392C20.7959 36.5273 21.8783 34.6354 24.3223 34.6354C26.1379 34.6354 27.1854 35.5183 27.1854 38.2932V49.9995H32.9463V39.2392C32.9463 36.4958 34.0287 34.6354 36.4727 34.6354C38.2883 34.6354 39.3358 35.5183 39.3358 38.2932V49.9995L51.4879 49.9995L54.8397 44.4182L58.1915 49.9995H65L58.6804 40.1359L64.4413 30.3784H57.7027L54.8397 35.7705L51.9767 30.3784H45.2381L50.999 40.1359L45.1317 49.3608V36.3066C45.1317 34.4462 44.0493 30 38.044 30Z" fill="white"/>
</svg>
